<?xml version="1.0" standalone="no"?>
<!DOCTYPE svg PUBLIC "-//W3C//DTD SVG 20010904//EN"
 "http://www.w3.org/TR/2001/REC-SVG-20010904/DTD/svg10.dtd">
<svg version="1.0" xmlns="http://www.w3.org/2000/svg"
 width="192.000000pt" height="192.000000pt" viewBox="0 0 192.000000 192.000000"
 preserveAspectRatio="xMidYMid meet">
<metadata>
Created by potrace 1.14, written by Peter Selinger 2001-2017
</metadata>
<g transform="translate(0.000000,192.000000) scale(0.100000,-0.100000)"
fill="#000000" stroke="none">
<path d="M1415 1515 c-54 -53 -18 -155 55 -155 42 0 67 15 86 51 46 89 -71
175 -141 104z"/>
<path d="M981 1177 c-34 -7 -57 -21 -100 -64 -30 -31 -56 -52 -58 -47 -2 5
-12 24 -23 42 -62 101 -211 96 -289 -10 -29 -39 -31 -40 -31 -16 0 14 -3 40
-6 57 -6 30 -8 31 -60 31 l-54 0 0 -400 0 -401 63 3 62 3 5 290 c5 319 7 325
70 379 54 45 108 46 133 3 8 -16 13 -114 17 -347 l5 -325 59 -3 c41 -2 62 1
67 10 5 7 9 139 9 294 l0 281 29 39 c43 59 67 77 107 78 29 1 41 -5 58 -27 20
-27 21 -39 24 -353 l3 -324 65 0 65 0 -3 338 -3 337 -25 44 c-43 77 -105 105
-189 88z"/>
<path d="M1412 773 l3 -398 65 0 65 0 0 395 0 395 -68 3 -67 3 2 -398z"/>
</g>
</svg>
