<svg xmlns="http://www.w3.org/2000/svg" aria-hidden="true" style="position:absolute;width:0;height:0;overflow:hidden"><defs><symbol id="icon-telegram" viewBox="0 0 34 32"><path d="M31.246 1.679c-.406.03-.804.125-1.179.282h-.005c-.36.143-2.072.863-4.674 1.954l-9.325 3.927c-6.691 2.817-13.268 5.591-13.268 5.591l.078-.03s-.453.149-.927.474c-.293.186-.544.43-.74.716-.232.341-.419.863-.35 1.402.114.912.705 1.459 1.129 1.761.429.306.839.448.839.448h.01l6.168 2.078c.277.888 1.88 6.158 2.265 7.372.227.725.448 1.178.725 1.525.134.177.291.325.479.443.098.057.202.102.311.134l-.063-.015c.019.005.034.02.048.025.051.014.085.019.149.029.976.296 1.761-.311 1.761-.311l.044-.035 3.642-3.316 6.104 4.682.139.059c1.272.558 2.561.248 3.241-.301.686-.552.952-1.258.952-1.258l.044-.114L33.56 5.038c.134-.596.168-1.155.02-1.696a2.283 2.283 0 0 0-.987-1.323 2.365 2.365 0 0 0-1.348-.341zm-.127 2.589c-.005.08.01.071-.025.224v.014l-4.672 23.912c-.02.034-.054.109-.148.183-.099.078-.177.128-.587-.035l-7.465-5.723-4.51 4.11.947-6.051L26.856 9.534c.503-.467.335-.566.335-.566.035-.573-.759-.168-.759-.168l-15.38 9.528-.005-.025-7.391-2.491a.25.25 0 0 0 .038-.015l.04-.02.039-.014s6.582-2.774 13.273-5.591c3.35-1.411 6.725-2.832 9.321-3.928 1.54-.648 3.081-1.292 4.623-1.933.104-.04.054-.04.129-.04V4.27z"/></symbol><symbol id="icon-facebook" viewBox="0 0 32 32"><path d="M13.912 11.099v2.203h-1.613v2.693h1.613V24h3.315v-8.005h2.224s.21-1.291.31-2.704h-2.522v-1.84c0-.277.362-.646.72-.646h1.805V8h-2.456c-3.478 0-3.397 2.696-3.397 3.099z"/><path d="M6.4 3.2a3.2 3.2 0 0 0-3.2 3.2v19.2a3.2 3.2 0 0 0 3.2 3.2h19.2a3.2 3.2 0 0 0 3.2-3.2V6.4a3.2 3.2 0 0 0-3.2-3.2H6.4zm0-3.2h19.2A6.403 6.403 0 0 1 32 6.401v19.2a6.402 6.402 0 0 1-6.4 6.4H6.4a6.4 6.4 0 0 1-6.401-6.4v-19.2A6.4 6.4 0 0 1 6.4 0z"/></symbol><symbol id="icon-instagram" viewBox="0 0 32 32"><path d="M9.404.096C11.11.017 11.654 0 16 0s4.89.019 6.595.096 2.868.349 3.887.743a7.88 7.88 0 0 1 2.833 1.847 7.803 7.803 0 0 1 1.844 2.832c.396 1.018.666 2.182.745 3.884.079 1.709.096 2.253.096 6.598 0 4.346-.019 4.89-.096 6.596-.077 1.702-.349 2.865-.745 3.884a7.85 7.85 0 0 1-1.844 2.835 7.832 7.832 0 0 1-2.833 1.844c-1.018.396-2.182.666-3.884.745C20.89 31.983 20.346 32 16 32s-4.89-.019-6.596-.096c-1.702-.077-2.865-.349-3.884-.745a7.85 7.85 0 0 1-2.835-1.844 7.846 7.846 0 0 1-1.846-2.833C.445 25.464.174 24.3.096 22.598.017 20.889 0 20.345 0 16c0-4.346.019-4.89.096-6.595s.349-2.868.743-3.887a7.854 7.854 0 0 1 1.847-2.833A7.843 7.843 0 0 1 5.518.839C6.536.445 7.7.174 9.402.096h.001zm13.061 2.88c-1.687-.077-2.193-.093-6.465-.093s-4.778.016-6.465.093c-1.561.071-2.407.332-2.972.551a4.972 4.972 0 0 0-1.84 1.196 4.966 4.966 0 0 0-1.196 1.84c-.22.564-.48 1.411-.551 2.972-.077 1.687-.093 2.193-.093 6.465s.016 4.778.093 6.465c.071 1.561.332 2.407.551 2.972a4.962 4.962 0 0 0 1.196 1.84c.516.531 1.146.94 1.84 1.196.564.22 1.411.48 2.972.551 1.687.077 2.192.093 6.465.093s4.778-.016 6.465-.093c1.561-.071 2.407-.332 2.972-.551a4.972 4.972 0 0 0 1.84-1.196 4.962 4.962 0 0 0 1.196-1.84c.22-.564.48-1.411.551-2.972.077-1.687.093-2.193.093-6.465s-.016-4.778-.093-6.465c-.071-1.561-.332-2.407-.551-2.972a4.972 4.972 0 0 0-1.196-1.84 4.974 4.974 0 0 0-1.84-1.196c-.564-.22-1.411-.48-2.972-.551zm-8.509 17.956a5.335 5.335 0 0 0 6.488-1.962 5.342 5.342 0 0 0-2.646-7.995 5.34 5.34 0 0 0-7.078 4.243 5.334 5.334 0 0 0 3.236 5.714zm-3.771-10.747A8.232 8.232 0 0 1 16 7.776a8.23 8.23 0 0 1 7.598 5.077 8.21 8.21 0 0 1 0 6.294 8.225 8.225 0 1 1-13.413-8.962zm15.863-1.184a1.958 1.958 0 0 0 .611-1.386 1.953 1.953 0 0 0-.569-1.403 1.948 1.948 0 0 0-1.403-.569 1.945 1.945 0 1 0 1.363 3.36z"/></symbol><symbol id="icon-phone" viewBox="0 0 19 32"><path d="M15.6 0a3.602 3.602 0 0 1 3.6 3.6v24.8a3.602 3.602 0 0 1-3.6 3.6h-12A3.602 3.602 0 0 1 0 28.4V3.6A3.602 3.602 0 0 1 3.6 0h12zm0 2.4h-12a1.195 1.195 0 0 0-1.2 1.2v24.8c0 .662.538 1.2 1.2 1.2h12a1.206 1.206 0 0 0 1.2-1.2V3.6a1.2 1.2 0 0 0-1.2-1.2zm-4.002 22.4a1.203 1.203 0 0 1 .852 2.047c-.225.225-.53.352-.848.353l-4 .006a1.203 1.203 0 0 1-.852-2.047c.225-.225.53-.352.848-.353l4-.006z"/></symbol><symbol id="icon-ukrposhta" viewBox="0 0 19 32"><path d="M9.6.658C4.297.658 0 4.938 0 10.239c0 9.166 9.6 21.12 9.6 21.12s9.6-11.956 9.6-21.12C19.2 4.94 14.903.658 9.6.658zm0 14.882a5.186 5.186 0 0 1-5.184-5.184A5.186 5.186 0 0 1 9.6 5.172a5.186 5.186 0 0 1 5.184 5.184A5.186 5.186 0 0 1 9.6 15.54z"/></symbol><symbol id="icon-facebook-pc" viewBox="0 0 115 32"><path d="M11.904 16.179h4.736v.819h-4.736v-.819zm.102 4.621h-.947v-8.96h6.144v.819h-5.197V20.8zm11.153 0v-1.485l-.038-.243v-2.483c0-.572-.162-1.011-.486-1.318-.316-.307-.789-.461-1.421-.461-.435 0-.849.073-1.242.218s-.725.337-.998.576l-.41-.678c.341-.29.751-.512 1.229-.666a4.67 4.67 0 0 1 1.51-.243c.87 0 1.54.218 2.01.653.478.427.717 1.079.717 1.958v4.173h-.87zm-2.316.064c-.503 0-.943-.081-1.318-.243a2.023 2.023 0 0 1-.845-.691 1.825 1.825 0 0 1-.294-1.024c0-.35.081-.666.243-.947.171-.29.444-.521.819-.691.384-.179.896-.269 1.536-.269h2.317v.678H21.01c-.649 0-1.101.115-1.357.346-.247.23-.371.516-.371.858 0 .384.149.691.448.922s.717.346 1.254.346c.512 0 .952-.115 1.318-.346.375-.239.648-.58.819-1.024l.205.627a2.122 2.122 0 0 1-.896 1.062c-.418.265-.947.397-1.587.397zm8.702 0c-.666 0-1.263-.145-1.792-.435a3.305 3.305 0 0 1-1.229-1.216c-.299-.521-.448-1.114-.448-1.779 0-.674.149-1.267.448-1.779s.708-.913 1.229-1.203c.529-.29 1.126-.435 1.792-.435.572 0 1.088.111 1.549.333s.824.555 1.088.998l-.678.461c-.23-.341-.516-.593-.858-.755s-.712-.243-1.114-.243c-.478 0-.909.111-1.293.333-.384.213-.687.516-.909.909s-.333.853-.333 1.382.111.99.333 1.382c.222.393.525.7.909.922.384.213.815.32 1.293.32.401 0 .772-.081 1.114-.243s.627-.41.858-.742l.678.461a2.61 2.61 0 0 1-1.088.998 3.523 3.523 0 0 1-1.549.333zm7.42 0c-.7 0-1.314-.145-1.843-.435a3.275 3.275 0 0 1-1.242-1.216c-.299-.521-.448-1.114-.448-1.779s.141-1.254.422-1.766c.29-.512.683-.913 1.178-1.203a3.248 3.248 0 0 1 1.69-.448c.632 0 1.19.145 1.677.435.495.282.883.683 1.165 1.203.282.512.422 1.105.422 1.779 0 .043-.004.09-.013.141v.141h-5.85v-.678h5.363l-.358.269c0-.486-.107-.917-.32-1.293-.205-.384-.486-.683-.845-.896s-.772-.32-1.242-.32c-.461 0-.875.107-1.242.32s-.653.512-.858.896-.307.823-.307 1.318v.141c0 .512.111.964.333 1.357.23.384.546.687.947.909.41.213.875.32 1.395.32.41 0 .789-.073 1.139-.218a2.37 2.37 0 0 0 .922-.666l.512.589a2.883 2.883 0 0 1-1.126.819 3.736 3.736 0 0 1-1.472.282zm8.595 0a3.169 3.169 0 0 1-1.587-.397c-.469-.273-.841-.666-1.114-1.178s-.41-1.131-.41-1.856c0-.734.137-1.353.41-1.856.282-.512.657-.9 1.126-1.165s.994-.397 1.574-.397c.64 0 1.212.145 1.715.435.512.282.913.678 1.203 1.19s.435 1.109.435 1.792c0 .674-.145 1.271-.435 1.792-.29.512-.691.913-1.203 1.203-.503.29-1.075.435-1.715.435zm-3.469-.064v-9.498H43v4.762l-.128 1.357.09 1.357V20.8h-.87zm3.405-.742c.478 0 .905-.107 1.28-.32a2.45 2.45 0 0 0 .896-.922c.222-.401.333-.862.333-1.382 0-.529-.111-.99-.333-1.382s-.521-.695-.896-.909c-.375-.222-.802-.333-1.28-.333s-.909.111-1.293.333a2.351 2.351 0 0 0-.896.909c-.213.393-.32.853-.32 1.382 0 .521.107.981.32 1.382.222.393.521.7.896.922.384.213.815.32 1.293.32zm8.265.806a3.545 3.545 0 0 1-1.754-.435 3.329 3.329 0 0 1-1.216-1.216c-.299-.521-.448-1.114-.448-1.779 0-.674.149-1.267.448-1.779s.704-.913 1.216-1.203 1.097-.435 1.754-.435c.666 0 1.254.145 1.766.435.521.29.926.691 1.216 1.203.299.512.448 1.105.448 1.779 0 .666-.149 1.259-.448 1.779-.29.512-.695.917-1.216 1.216-.52.29-1.109.435-1.766.435zm0-.806c.486 0 .917-.107 1.293-.32.376-.222.67-.529.883-.922.222-.401.333-.862.333-1.382 0-.529-.111-.99-.333-1.382a2.267 2.267 0 0 0-.883-.909c-.375-.222-.802-.333-1.28-.333s-.904.111-1.28.333c-.375.213-.674.516-.896.909s-.333.853-.333 1.382c0 .521.111.981.333 1.382.222.393.521.7.896.922.376.213.798.32 1.267.32zm8.281.806a3.543 3.543 0 0 1-1.754-.435 3.329 3.329 0 0 1-1.216-1.216c-.299-.521-.448-1.114-.448-1.779 0-.674.149-1.267.448-1.779s.704-.913 1.216-1.203c.512-.29 1.097-.435 1.754-.435.666 0 1.254.145 1.766.435.521.29.926.691 1.216 1.203.299.512.448 1.105.448 1.779 0 .666-.149 1.259-.448 1.779-.29.512-.695.917-1.216 1.216-.521.29-1.109.435-1.766.435zm0-.806c.486 0 .917-.107 1.293-.32.375-.222.67-.529.883-.922.222-.401.333-.862.333-1.382 0-.529-.111-.99-.333-1.382a2.267 2.267 0 0 0-.883-.909c-.375-.222-.802-.333-1.28-.333s-.905.111-1.28.333c-.375.213-.674.516-.896.909s-.333.853-.333 1.382c0 .521.111.981.333 1.382.222.393.521.7.896.922.375.213.798.32 1.267.32zm6.259-.999.026-1.165 4.186-3.814h1.114l-2.957 2.829-.512.435-1.856 1.715zm-.717 1.741v-9.498h.909V20.8h-.909zm5.21 0-2.803-3.494.589-.704 3.328 4.198h-1.114zM94.956 13.55v1.102h-.806v1.346h.806V20h1.658v-4.002h1.112s.105-.646.155-1.352H96.62v-.92c0-.138.181-.323.36-.323h.902v-1.402h-1.228c-1.739 0-1.698 1.348-1.698 1.55z"/><path d="M91.2 9.6a1.6 1.6 0 0 0-1.6 1.6v9.6a1.6 1.6 0 0 0 1.6 1.6h9.6a1.6 1.6 0 0 0 1.6-1.6v-9.6a1.6 1.6 0 0 0-1.6-1.6h-9.6zm0-1.6h9.6a3.198 3.198 0 0 1 3.2 3.2v9.6a3.197 3.197 0 0 1-3.2 3.2h-9.6a3.198 3.198 0 0 1-3.2-3.2v-9.6A3.197 3.197 0 0 1 91.2 8z"/></symbol><symbol id="icon-telegram-pc" viewBox="0 0 115 32"><path d="M12.8 20.8v-8.141H9.651v-.819h7.245v.819h-3.149V20.8H12.8zm7.828.064c-.7 0-1.314-.145-1.843-.435a3.275 3.275 0 0 1-1.242-1.216c-.299-.521-.448-1.114-.448-1.779s.141-1.254.422-1.766c.29-.512.683-.913 1.178-1.203a3.246 3.246 0 0 1 1.69-.448c.631 0 1.19.145 1.677.435.495.282.883.683 1.165 1.203.282.512.422 1.105.422 1.779 0 .043-.004.09-.013.141v.141h-5.85v-.678h5.363l-.358.269c0-.486-.107-.917-.32-1.293-.205-.384-.486-.683-.845-.896s-.772-.32-1.242-.32c-.461 0-.875.107-1.242.32s-.653.512-.858.896a2.754 2.754 0 0 0-.307 1.318v.141c0 .512.111.964.333 1.357.23.384.546.687.947.909.41.213.875.32 1.395.32.41 0 .789-.073 1.139-.218a2.37 2.37 0 0 0 .922-.666l.512.589a2.883 2.883 0 0 1-1.126.819 3.736 3.736 0 0 1-1.472.282zm5.126-.064v-9.498h.909V20.8h-.909zm6.548.064c-.7 0-1.314-.145-1.843-.435a3.275 3.275 0 0 1-1.242-1.216c-.299-.521-.448-1.114-.448-1.779s.141-1.254.422-1.766c.29-.512.683-.913 1.178-1.203a3.248 3.248 0 0 1 1.69-.448c.632 0 1.19.145 1.677.435.495.282.883.683 1.165 1.203.282.512.422 1.105.422 1.779 0 .043-.004.09-.013.141v.141h-5.85v-.678h5.363l-.358.269c0-.486-.107-.917-.32-1.293-.205-.384-.486-.683-.845-.896s-.772-.32-1.242-.32c-.461 0-.875.107-1.242.32s-.653.512-.858.896-.307.823-.307 1.318v.141c0 .512.111.964.333 1.357.23.384.546.687.947.909.41.213.875.32 1.395.32.41 0 .789-.073 1.139-.218a2.37 2.37 0 0 0 .922-.666l.512.589a2.883 2.883 0 0 1-1.126.819 3.736 3.736 0 0 1-1.472.282zm7.994 2.483c-.614 0-1.203-.09-1.766-.269s-1.02-.435-1.37-.768l.461-.691c.316.282.704.503 1.165.666a4.3 4.3 0 0 0 1.485.256c.853 0 1.48-.201 1.882-.602.401-.393.602-1.007.602-1.843v-1.677l.128-1.152-.09-1.152V14.08h.87v5.901c0 1.161-.286 2.01-.858 2.547-.563.546-1.4.819-2.509.819zm-.166-2.803c-.64 0-1.216-.137-1.728-.41a3.195 3.195 0 0 1-1.216-1.165c-.29-.495-.435-1.062-.435-1.702s.145-1.203.435-1.69c.299-.495.704-.879 1.216-1.152s1.088-.41 1.728-.41c.597 0 1.135.124 1.613.371s.858.614 1.139 1.101.422 1.079.422 1.779-.141 1.293-.422 1.779-.661.858-1.139 1.114a3.363 3.363 0 0 1-1.613.384zm.089-.806c.495 0 .934-.102 1.318-.307.384-.213.687-.503.909-.87.222-.375.333-.806.333-1.293s-.111-.913-.333-1.28a2.317 2.317 0 0 0-.909-.858 2.674 2.674 0 0 0-1.318-.32c-.486 0-.926.107-1.318.32a2.317 2.317 0 0 0-.909.858c-.213.367-.32.794-.32 1.28s.107.917.32 1.293c.222.367.525.657.909.87.392.205.832.307 1.318.307zm6.228 1.062v-6.72h.87v1.83l-.09-.32c.188-.512.503-.9.947-1.165.444-.273.994-.41 1.651-.41v.883h-.102a.396.396 0 0 0-.102-.013c-.708 0-1.263.218-1.664.653-.401.427-.602 1.037-.602 1.83v3.43h-.909zm9.005 0v-1.485l-.038-.243v-2.483c0-.572-.162-1.011-.486-1.318-.316-.307-.789-.461-1.421-.461-.435 0-.849.073-1.242.218s-.725.337-.998.576l-.41-.678c.341-.29.751-.512 1.229-.666a4.67 4.67 0 0 1 1.51-.243c.87 0 1.54.218 2.01.653.478.427.717 1.079.717 1.958v4.173h-.87zm-2.317.064c-.504 0-.943-.081-1.318-.243-.367-.171-.649-.401-.845-.691a1.825 1.825 0 0 1-.294-1.024c0-.35.081-.666.243-.947.171-.29.444-.521.819-.691.384-.179.896-.269 1.536-.269h2.317v.678h-2.291c-.649 0-1.101.115-1.357.346-.248.23-.371.516-.371.858 0 .384.149.691.448.922s.717.346 1.254.346c.512 0 .951-.115 1.318-.346.375-.239.648-.58.819-1.024l.205.627a2.122 2.122 0 0 1-.896 1.062c-.418.265-.947.397-1.587.397zm14.309-6.848c.546 0 1.02.107 1.421.32.41.205.725.521.947.947.23.427.346.964.346 1.613V20.8h-.909v-3.814c0-.708-.171-1.242-.512-1.6-.333-.367-.806-.55-1.421-.55-.461 0-.862.098-1.203.294a1.944 1.944 0 0 0-.781.832c-.179.358-.269.794-.269 1.306v3.533h-.909v-3.814c0-.708-.171-1.242-.512-1.6-.341-.367-.819-.55-1.434-.55-.452 0-.849.098-1.19.294a1.925 1.925 0 0 0-.794.832c-.179.358-.269.794-.269 1.306v3.533h-.909v-6.72h.87V15.9l-.141-.32c.205-.486.533-.866.986-1.139.461-.282 1.003-.422 1.626-.422.657 0 1.216.166 1.677.499.461.324.759.815.896 1.472l-.358-.141a2.621 2.621 0 0 1 1.037-1.318c.503-.341 1.105-.512 1.805-.512zM102.042 8.798a1.765 1.765 0 0 0-.559.134h-.002c-.171.068-.984.41-2.22.928l-4.43 1.865a10511.97 10511.97 0 0 0-6.302 2.656l.038-.014s-.216.071-.441.225a1.21 1.21 0 0 0-.351.34 1 1 0 0 0-.166.666c.054.433.334.693.536.836.204.145.398.213.398.213h.005l2.93.987c.131.422.893 2.925 1.075 3.502.108.344.214.56.345.724a.861.861 0 0 0 .227.211.697.697 0 0 0 .148.064l-.03-.007c.009.002.016.01.023.012.024.007.04.009.07.014.464.14.837-.148.837-.148l.021-.017 1.73-1.575 2.899 2.224.066.028c.604.265 1.216.118 1.539-.143.326-.262.453-.598.453-.598l.021-.054 2.24-11.477c.064-.283.08-.548.01-.806a1.078 1.078 0 0 0-1.109-.79zm-.06 1.23c-.002.038.005.034-.012.106v.007l-2.22 11.358c-.01.016-.026.052-.07.087-.047.037-.084.061-.279-.017l-3.546-2.719-2.142 1.952.45-2.874 5.794-5.4c.239-.222.159-.269.159-.269.017-.272-.361-.08-.361-.08l-7.306 4.526-.002-.012-3.51-1.183.018-.007.019-.01.018-.007s3.126-1.318 6.305-2.656c1.591-.67 3.194-1.345 4.427-1.866.731-.308 1.463-.614 2.196-.918.05-.019.026-.019.062-.019v-.001z"/></symbol><symbol id="icon-instagram-pc" viewBox="0 0 115 32"><path d="M92.372 7.253C93.31 7.21 93.61 7.2 96 7.2s2.69.01 3.627.053c.938.042 1.578.192 2.138.409a4.337 4.337 0 0 1 1.558 1.016c.448.439.794.97 1.014 1.558.218.56.366 1.2.41 2.136.043.94.053 1.239.053 3.629s-.01 2.69-.053 3.628c-.042.936-.192 1.576-.41 2.136a4.327 4.327 0 0 1-1.014 1.559c-.44.448-.972.794-1.558 1.014-.56.218-1.2.366-2.136.41-.939.043-1.238.053-3.629.053s-2.69-.01-3.628-.053c-.936-.042-1.576-.192-2.136-.41a4.327 4.327 0 0 1-1.559-1.014 4.304 4.304 0 0 1-1.015-1.558c-.217-.56-.366-1.2-.409-2.136-.043-.94-.053-1.239-.053-3.629s.01-2.69.053-3.627.192-1.578.409-2.138a4.32 4.32 0 0 1 1.016-1.558c.439-.448.97-.794 1.558-1.015.56-.217 1.2-.366 2.136-.409h.001zm7.184 1.584c-.928-.042-1.206-.051-3.556-.051s-2.628.009-3.556.051c-.858.039-1.324.182-1.634.303-.41.16-.704.35-1.012.658-.292.284-.517.63-.658 1.012-.121.31-.264.776-.303 1.634-.042.928-.051 1.206-.051 3.556s.009 2.628.051 3.556c.039.858.182 1.324.303 1.634.141.382.366.728.658 1.012.284.292.63.517 1.012.658.31.121.776.264 1.634.303.928.042 1.206.051 3.556.051s2.628-.009 3.556-.051c.858-.039 1.324-.182 1.634-.303.41-.16.704-.35 1.012-.658.292-.284.517-.63.658-1.012.121-.31.264-.776.303-1.634.042-.928.051-1.206.051-3.556s-.009-2.628-.051-3.556c-.039-.858-.182-1.324-.303-1.634-.16-.41-.35-.704-.658-1.012a2.732 2.732 0 0 0-1.012-.658c-.31-.121-.776-.264-1.634-.303zm-4.68 9.876a2.937 2.937 0 0 0 4.049-3 2.931 2.931 0 0 0-.849-1.789 2.93 2.93 0 0 0-2.364-.845 2.932 2.932 0 0 0-2.615 2.491 2.926 2.926 0 0 0 1.779 3.143zm-2.074-5.911A4.513 4.513 0 0 1 96 11.478a4.534 4.534 0 0 1 3.198 1.324 4.53 4.53 0 0 1 .981 4.929A4.531 4.531 0 0 1 96 20.523a4.522 4.522 0 0 1-3.198-7.721zm8.724-.652a1.073 1.073 0 0 0 .257-1.18 1.082 1.082 0 0 0-.588-.589 1.063 1.063 0 0 0-.833.012 1.073 1.073 0 0 0-.638.995 1.068 1.068 0 0 0 1.054 1.054c.279.004.547-.1.75-.291zM11.059 20.8v-8.96h.947v8.96h-.947zm7.357-6.784c.546 0 1.024.107 1.434.32.418.205.742.521.973.947.239.427.358.964.358 1.613V20.8h-.909v-3.814c0-.708-.179-1.242-.538-1.6-.35-.367-.845-.55-1.485-.55-.478 0-.896.098-1.254.294-.35.188-.623.465-.819.832-.188.358-.282.794-.282 1.306v3.533h-.909v-6.72h.87v1.843l-.141-.346a2.412 2.412 0 0 1 1.024-1.139c.469-.282 1.028-.422 1.677-.422zm7.28 6.848a5.298 5.298 0 0 1-1.574-.23c-.495-.162-.883-.363-1.165-.602l.41-.717c.273.205.623.384 1.05.538.427.145.875.218 1.344.218.64 0 1.101-.098 1.382-.294a.951.951 0 0 0 .422-.806c0-.247-.081-.439-.243-.576a1.401 1.401 0 0 0-.614-.32c-.256-.077-.542-.141-.858-.192s-.631-.111-.947-.179a3.646 3.646 0 0 1-.845-.294 1.783 1.783 0 0 1-.627-.55c-.154-.23-.23-.538-.23-.922 0-.367.102-.695.307-.986s.504-.516.896-.678c.401-.171.888-.256 1.459-.256.435 0 .87.06 1.306.179.435.111.794.26 1.075.448l-.397.73a2.947 2.947 0 0 0-.96-.435 3.842 3.842 0 0 0-1.024-.141c-.606 0-1.054.107-1.344.32-.282.205-.422.469-.422.794 0 .256.077.457.23.602.162.145.371.26.627.346.265.077.55.141.858.192.316.051.627.115.934.192.316.068.602.166.858.294.265.119.474.294.627.525.162.222.243.516.243.883 0 .393-.111.734-.333 1.024-.213.282-.529.503-.947.666-.41.154-.909.23-1.498.23zm6.826 0c-.631 0-1.118-.171-1.459-.512s-.512-.823-.512-1.446v-6.31h.909v6.259c0 .393.098.695.294.909.205.213.495.32.87.32.401 0 .734-.115.998-.346l.32.653a1.664 1.664 0 0 1-.653.358 2.565 2.565 0 0 1-.768.115zm-3.174-6.029v-.755h4.16v.755h-4.16zM40.065 20.8v-1.485l-.038-.243v-2.483c0-.572-.162-1.011-.486-1.318-.316-.307-.789-.461-1.421-.461-.435 0-.849.073-1.242.218s-.725.337-.998.576l-.41-.678c.341-.29.751-.512 1.229-.666a4.67 4.67 0 0 1 1.51-.243c.87 0 1.54.218 2.01.653.478.427.717 1.079.717 1.958v4.173h-.87zm-2.317.064c-.503 0-.943-.081-1.318-.243a2.023 2.023 0 0 1-.845-.691 1.825 1.825 0 0 1-.294-1.024c0-.35.081-.666.243-.947.171-.29.444-.521.819-.691.384-.179.896-.269 1.536-.269h2.317v.678h-2.291c-.648 0-1.101.115-1.357.346-.247.23-.371.516-.371.858 0 .384.149.691.448.922s.717.346 1.254.346c.512 0 .952-.115 1.318-.346.376-.239.649-.58.819-1.024l.205.627a2.122 2.122 0 0 1-.896 1.062c-.418.265-.947.397-1.587.397zm8.779 2.483c-.614 0-1.203-.09-1.766-.269s-1.02-.435-1.37-.768l.461-.691c.316.282.704.503 1.165.666a4.3 4.3 0 0 0 1.485.256c.853 0 1.481-.201 1.882-.602.401-.393.602-1.007.602-1.843v-1.677l.128-1.152-.09-1.152V14.08h.87v5.901c0 1.161-.286 2.01-.858 2.547-.563.546-1.399.819-2.509.819zm-.167-2.803c-.64 0-1.216-.137-1.728-.41a3.195 3.195 0 0 1-1.216-1.165c-.29-.495-.435-1.062-.435-1.702s.145-1.203.435-1.69c.299-.495.704-.879 1.216-1.152s1.088-.41 1.728-.41c.597 0 1.135.124 1.613.371s.858.614 1.139 1.101.422 1.079.422 1.779-.141 1.293-.422 1.779-.661.858-1.139 1.114a3.36 3.36 0 0 1-1.613.384zm.09-.806c.495 0 .934-.102 1.318-.307.384-.213.687-.503.909-.87.222-.375.333-.806.333-1.293s-.111-.913-.333-1.28a2.317 2.317 0 0 0-.909-.858 2.67 2.67 0 0 0-1.318-.32c-.486 0-.926.107-1.318.32a2.317 2.317 0 0 0-.909.858c-.213.367-.32.794-.32 1.28s.107.917.32 1.293c.222.367.525.657.909.87.393.205.832.307 1.318.307zm6.228 1.062v-6.72h.87v1.83l-.09-.32c.188-.512.504-.9.947-1.165.444-.273.994-.41 1.651-.41v.883h-.102a.396.396 0 0 0-.102-.013c-.708 0-1.263.218-1.664.653-.401.427-.602 1.037-.602 1.83v3.43h-.909zm9.005 0v-1.485l-.038-.243v-2.483c0-.572-.162-1.011-.486-1.318-.316-.307-.789-.461-1.421-.461-.435 0-.849.073-1.242.218s-.725.337-.998.576l-.41-.678c.341-.29.751-.512 1.229-.666a4.67 4.67 0 0 1 1.51-.243c.87 0 1.54.218 2.01.653.478.427.717 1.079.717 1.958v4.173h-.87zm-2.317.064c-.503 0-.943-.081-1.318-.243a2.023 2.023 0 0 1-.845-.691 1.825 1.825 0 0 1-.294-1.024c0-.35.081-.666.243-.947.171-.29.444-.521.819-.691.384-.179.896-.269 1.536-.269h2.317v.678h-2.291c-.648 0-1.101.115-1.357.346-.247.23-.371.516-.371.858 0 .384.149.691.448.922s.717.346 1.254.346c.512 0 .952-.115 1.318-.346.376-.239.649-.58.819-1.024l.205.627a2.122 2.122 0 0 1-.896 1.062c-.418.265-.947.397-1.587.397zm14.308-6.848c.546 0 1.02.107 1.421.32.41.205.725.521.947.947.23.427.346.964.346 1.613V20.8h-.909v-3.814c0-.708-.171-1.242-.512-1.6-.333-.367-.806-.55-1.421-.55-.461 0-.862.098-1.203.294a1.944 1.944 0 0 0-.781.832c-.179.358-.269.794-.269 1.306v3.533h-.909v-3.814c0-.708-.171-1.242-.512-1.6-.341-.367-.819-.55-1.434-.55-.452 0-.849.098-1.19.294a1.925 1.925 0 0 0-.794.832c-.179.358-.269.794-.269 1.306v3.533h-.909v-6.72h.87V15.9l-.141-.32c.205-.486.533-.866.986-1.139.461-.282 1.003-.422 1.626-.422.657 0 1.216.166 1.677.499.461.324.76.815.896 1.472l-.358-.141a2.621 2.621 0 0 1 1.037-1.318c.504-.341 1.105-.512 1.805-.512z"/></symbol></defs></svg>