<svg aria-hidden="true" style="position: absolute; width: 0; height: 0; overflow: hidden;" version="1.1" xmlns="http://www.w3.org/2000/svg" xmlns:xlink="http://www.w3.org/1999/xlink">
<defs>
<symbol id="icon-twitter" viewBox="0 0 34 32">
<path d="M31.246 1.679c-0.406 0.030-0.804 0.125-1.179 0.282h-0.005c-0.36 0.143-2.072 0.863-4.674 1.954l-9.325 3.927c-6.691 2.817-13.268 5.591-13.268 5.591l0.078-0.030c0 0-0.453 0.149-0.927 0.474-0.293 0.186-0.544 0.43-0.74 0.716-0.232 0.341-0.419 0.863-0.35 1.402 0.114 0.912 0.705 1.459 1.129 1.761 0.429 0.306 0.839 0.448 0.839 0.448h0.010l6.168 2.078c0.277 0.888 1.88 6.158 2.265 7.372 0.227 0.725 0.448 1.178 0.725 1.525 0.134 0.177 0.291 0.325 0.479 0.443 0.098 0.057 0.202 0.102 0.311 0.134l-0.063-0.015c0.019 0.005 0.034 0.020 0.048 0.025 0.051 0.014 0.085 0.019 0.149 0.029 0.976 0.296 1.761-0.311 1.761-0.311l0.044-0.035 3.642-3.316 6.104 4.682 0.139 0.059c1.272 0.558 2.561 0.248 3.241-0.301 0.686-0.552 0.952-1.258 0.952-1.258l0.044-0.114 4.717-24.163c0.134-0.596 0.168-1.155 0.020-1.696-0.152-0.548-0.504-1.020-0.987-1.323-0.405-0.246-0.874-0.365-1.348-0.341v0zM31.119 4.268c-0.005 0.080 0.010 0.071-0.025 0.224v0.014l-4.672 23.912c-0.020 0.034-0.054 0.109-0.148 0.183-0.099 0.078-0.177 0.128-0.587-0.035l-7.465-5.723-4.51 4.11 0.947-6.051 12.197-11.368c0.503-0.467 0.335-0.566 0.335-0.566 0.035-0.573-0.759-0.168-0.759-0.168l-15.38 9.528-0.005-0.025-7.391-2.491c0.013-0.004 0.026-0.009 0.038-0.015l0.040-0.020 0.039-0.014c0 0 6.582-2.774 13.273-5.591 3.35-1.411 6.725-2.832 9.321-3.928 1.54-0.648 3.081-1.292 4.623-1.933 0.104-0.040 0.054-0.040 0.129-0.040v-0.001z"></path>
</symbol>
<symbol id="icon-facebook" viewBox="0 0 32 32">
<path d="M13.912 11.099v2.203h-1.613v2.693h1.613v8.005h3.315v-8.005h2.224c0 0 0.21-1.291 0.31-2.704h-2.522v-1.84c0-0.277 0.362-0.646 0.72-0.646h1.805v-2.805h-2.456c-3.478 0-3.397 2.696-3.397 3.099z"></path>
<path d="M6.4 3.2c-0.849 0-1.663 0.337-2.263 0.937s-0.937 1.414-0.937 2.263v19.2c0 0.849 0.337 1.663 0.937 2.263s1.414 0.937 2.263 0.937h19.2c0.849 0 1.663-0.337 2.263-0.937s0.937-1.414 0.937-2.263v-19.2c0-0.849-0.337-1.663-0.937-2.263s-1.414-0.937-2.263-0.937h-19.2zM6.4 0h19.2c1.697 0 3.325 0.674 4.525 1.875s1.875 2.828 1.875 4.526v19.2c0 1.697-0.674 3.325-1.875 4.525s-2.828 1.875-4.525 1.875h-19.2c-1.697 0-3.325-0.674-4.526-1.875s-1.875-2.828-1.875-4.525v-19.2c0-1.697 0.674-3.325 1.875-4.526s2.828-1.875 4.526-1.875v0z"></path>
</symbol>
<symbol id="icon-instagram" viewBox="0 0 32 32">
<path d="M9.404 0.096c1.706-0.079 2.25-0.096 6.596-0.096s4.89 0.019 6.595 0.096c1.705 0.077 2.868 0.349 3.887 0.743 1.066 0.403 2.033 1.033 2.833 1.847 0.815 0.799 1.443 1.764 1.844 2.832 0.396 1.018 0.666 2.182 0.745 3.884 0.079 1.709 0.096 2.253 0.096 6.598 0 4.346-0.019 4.89-0.096 6.596-0.077 1.702-0.349 2.865-0.745 3.884-0.401 1.068-1.031 2.035-1.844 2.835-0.8 0.815-1.767 1.443-2.833 1.844-1.018 0.396-2.182 0.666-3.884 0.745-1.708 0.079-2.252 0.096-6.598 0.096s-4.89-0.019-6.596-0.096c-1.702-0.077-2.865-0.349-3.884-0.745-1.068-0.401-2.035-1.031-2.835-1.844-0.814-0.799-1.444-1.766-1.846-2.833-0.394-1.018-0.665-2.182-0.743-3.884-0.079-1.709-0.096-2.253-0.096-6.598 0-4.346 0.019-4.89 0.096-6.595s0.349-2.868 0.743-3.887c0.403-1.068 1.033-2.034 1.847-2.833 0.799-0.814 1.765-1.444 2.832-1.846 1.018-0.394 2.182-0.665 3.884-0.743h0.001zM22.465 2.976c-1.687-0.077-2.193-0.093-6.465-0.093s-4.778 0.016-6.465 0.093c-1.561 0.071-2.407 0.332-2.972 0.551-0.746 0.291-1.28 0.636-1.84 1.196-0.531 0.516-0.939 1.145-1.196 1.84-0.22 0.564-0.48 1.411-0.551 2.972-0.077 1.687-0.093 2.193-0.093 6.465s0.016 4.778 0.093 6.465c0.071 1.561 0.332 2.407 0.551 2.972 0.256 0.694 0.665 1.324 1.196 1.84 0.516 0.531 1.146 0.94 1.84 1.196 0.564 0.22 1.411 0.48 2.972 0.551 1.687 0.077 2.192 0.093 6.465 0.093s4.778-0.016 6.465-0.093c1.561-0.071 2.407-0.332 2.972-0.551 0.746-0.291 1.28-0.636 1.84-1.196 0.531-0.516 0.94-1.146 1.196-1.84 0.22-0.564 0.48-1.411 0.551-2.972 0.077-1.687 0.093-2.193 0.093-6.465s-0.016-4.778-0.093-6.465c-0.071-1.561-0.332-2.407-0.551-2.972-0.291-0.746-0.636-1.28-1.196-1.84-0.517-0.531-1.145-0.939-1.84-1.196-0.564-0.22-1.411-0.48-2.972-0.551v0zM13.956 20.932c1.141 0.475 2.412 0.539 3.595 0.181s2.206-1.115 2.893-2.143c0.687-1.028 0.996-2.262 0.873-3.492s-0.668-2.38-1.543-3.252c-0.558-0.558-1.233-0.985-1.976-1.251s-1.536-0.363-2.321-0.286-1.544 0.328-2.221 0.734c-0.677 0.406-1.255 0.957-1.694 1.613s-0.726 1.401-0.842 2.182c-0.116 0.78-0.057 1.577 0.172 2.332s0.622 1.45 1.152 2.035c0.53 0.585 1.183 1.045 1.912 1.347zM10.185 10.185c0.764-0.764 1.67-1.369 2.668-1.783s2.067-0.626 3.147-0.626c1.080 0 2.149 0.213 3.147 0.626s1.904 1.019 2.668 1.783c0.764 0.764 1.369 1.67 1.783 2.668s0.626 2.067 0.626 3.147-0.213 2.149-0.626 3.147c-0.413 0.998-1.019 1.904-1.783 2.668-1.542 1.542-3.634 2.409-5.815 2.409s-4.273-0.866-5.815-2.409-2.409-3.634-2.409-5.815c0-2.181 0.866-4.273 2.409-5.815v0zM26.048 9.001c0.189-0.179 0.341-0.393 0.446-0.631s0.161-0.495 0.165-0.755c0.004-0.26-0.045-0.518-0.142-0.759s-0.243-0.46-0.427-0.644c-0.184-0.184-0.403-0.329-0.644-0.427s-0.499-0.146-0.759-0.142c-0.26 0.004-0.517 0.060-0.755 0.165s-0.453 0.256-0.631 0.446c-0.347 0.368-0.537 0.857-0.53 1.363s0.212 0.989 0.569 1.347c0.358 0.358 0.841 0.562 1.347 0.569s0.995-0.183 1.363-0.53v0z"></path>
</symbol>
<symbol id="icon-phone" viewBox="0 0 19 32">
<path d="M15.6 0c0.955 0 1.87 0.379 2.546 1.054s1.054 1.591 1.054 2.546v24.8c0 0.955-0.379 1.87-1.054 2.546s-1.591 1.054-2.546 1.054h-12c-0.955 0-1.87-0.379-2.546-1.054s-1.054-1.591-1.054-2.546v-24.8c0-0.955 0.379-1.87 1.054-2.546s1.591-1.054 2.546-1.054h12zM15.6 2.4h-12c-0.318 0-0.623 0.126-0.849 0.351s-0.351 0.53-0.351 0.849v24.8c0 0.662 0.538 1.2 1.2 1.2h12c0.318 0 0.624-0.126 0.848-0.352s0.352-0.53 0.352-0.848v-24.8c0-0.318-0.126-0.623-0.352-0.849s-0.53-0.351-0.848-0.351v0zM11.598 24.8c0.318-0 0.624 0.126 0.849 0.35s0.352 0.53 0.353 0.848-0.126 0.624-0.35 0.849c-0.225 0.225-0.53 0.352-0.848 0.353l-4 0.006c-0.318 0-0.624-0.126-0.849-0.35s-0.352-0.53-0.353-0.848 0.126-0.624 0.35-0.849c0.225-0.225 0.53-0.352 0.848-0.353l4-0.006z"></path>
</symbol>
<symbol id="icon-ukrposhta" viewBox="0 0 19 32">
<path d="M9.6 0.658c-5.303 0-9.6 4.28-9.6 9.581 0 9.166 9.6 21.12 9.6 21.12s9.6-11.956 9.6-21.12c0-5.299-4.297-9.581-9.6-9.581v0zM9.6 15.54c-1.375 0-2.693-0.546-3.666-1.518s-1.518-2.291-1.518-3.666c0-1.375 0.546-2.693 1.518-3.666s2.291-1.518 3.666-1.518c1.375 0 2.693 0.546 3.666 1.518s1.518 2.291 1.518 3.666c0 1.375-0.546 2.693-1.518 3.666s-2.291 1.518-3.666 1.518z"></path>
</symbol>
<symbol id="icon-facebook-pc" viewBox="0 0 115 32">
<path d="M11.904 16.179h4.736v0.819h-4.736v-0.819zM12.006 20.8h-0.947v-8.96h6.144v0.819h-5.197v8.141zM23.159 20.8v-1.485l-0.038-0.243v-2.483c0-0.572-0.162-1.011-0.486-1.318-0.316-0.307-0.789-0.461-1.421-0.461-0.435 0-0.849 0.073-1.242 0.218s-0.725 0.337-0.998 0.576l-0.41-0.678c0.341-0.29 0.751-0.512 1.229-0.666 0.478-0.162 0.981-0.243 1.51-0.243 0.87 0 1.54 0.218 2.010 0.653 0.478 0.427 0.717 1.079 0.717 1.958v4.173h-0.87zM20.843 20.864c-0.503 0-0.943-0.081-1.318-0.243-0.367-0.171-0.648-0.401-0.845-0.691-0.196-0.299-0.294-0.64-0.294-1.024 0-0.35 0.081-0.666 0.243-0.947 0.171-0.29 0.444-0.521 0.819-0.691 0.384-0.179 0.896-0.269 1.536-0.269h2.317v0.678h-2.291c-0.649 0-1.101 0.115-1.357 0.346-0.247 0.23-0.371 0.516-0.371 0.858 0 0.384 0.149 0.691 0.448 0.922s0.717 0.346 1.254 0.346c0.512 0 0.952-0.115 1.318-0.346 0.375-0.239 0.648-0.58 0.819-1.024l0.205 0.627c-0.171 0.444-0.469 0.798-0.896 1.062-0.418 0.265-0.947 0.397-1.587 0.397zM29.545 20.864c-0.666 0-1.263-0.145-1.792-0.435-0.52-0.299-0.93-0.704-1.229-1.216-0.299-0.521-0.448-1.114-0.448-1.779 0-0.674 0.149-1.267 0.448-1.779s0.708-0.913 1.229-1.203c0.529-0.29 1.126-0.435 1.792-0.435 0.572 0 1.088 0.111 1.549 0.333s0.824 0.555 1.088 0.998l-0.678 0.461c-0.23-0.341-0.516-0.593-0.858-0.755s-0.712-0.243-1.114-0.243c-0.478 0-0.909 0.111-1.293 0.333-0.384 0.213-0.687 0.516-0.909 0.909s-0.333 0.853-0.333 1.382 0.111 0.99 0.333 1.382c0.222 0.393 0.525 0.7 0.909 0.922 0.384 0.213 0.815 0.32 1.293 0.32 0.401 0 0.772-0.081 1.114-0.243s0.627-0.41 0.858-0.742l0.678 0.461c-0.264 0.435-0.627 0.768-1.088 0.998-0.461 0.222-0.977 0.333-1.549 0.333zM36.965 20.864c-0.7 0-1.314-0.145-1.843-0.435-0.529-0.299-0.943-0.704-1.242-1.216-0.299-0.521-0.448-1.114-0.448-1.779s0.141-1.254 0.422-1.766c0.29-0.512 0.683-0.913 1.178-1.203 0.504-0.299 1.067-0.448 1.69-0.448 0.632 0 1.19 0.145 1.677 0.435 0.495 0.282 0.883 0.683 1.165 1.203 0.282 0.512 0.422 1.105 0.422 1.779 0 0.043-0.004 0.090-0.013 0.141 0 0.043 0 0.090 0 0.141h-5.85v-0.678h5.363l-0.358 0.269c0-0.486-0.107-0.917-0.32-1.293-0.205-0.384-0.486-0.683-0.845-0.896s-0.772-0.32-1.242-0.32c-0.461 0-0.875 0.107-1.242 0.32s-0.653 0.512-0.858 0.896-0.307 0.823-0.307 1.318v0.141c0 0.512 0.111 0.964 0.333 1.357 0.23 0.384 0.546 0.687 0.947 0.909 0.41 0.213 0.875 0.32 1.395 0.32 0.41 0 0.789-0.073 1.139-0.218 0.358-0.145 0.666-0.367 0.922-0.666l0.512 0.589c-0.299 0.358-0.674 0.631-1.126 0.819-0.444 0.188-0.934 0.282-1.472 0.282zM45.56 20.864c-0.589 0-1.118-0.132-1.587-0.397-0.469-0.273-0.841-0.666-1.114-1.178s-0.41-1.131-0.41-1.856c0-0.734 0.137-1.353 0.41-1.856 0.282-0.512 0.657-0.9 1.126-1.165s0.994-0.397 1.574-0.397c0.64 0 1.212 0.145 1.715 0.435 0.512 0.282 0.913 0.678 1.203 1.19s0.435 1.109 0.435 1.792c0 0.674-0.145 1.271-0.435 1.792-0.29 0.512-0.691 0.913-1.203 1.203-0.503 0.29-1.075 0.435-1.715 0.435zM42.091 20.8v-9.498h0.909v4.762l-0.128 1.357 0.090 1.357v2.022h-0.87zM45.496 20.058c0.478 0 0.905-0.107 1.28-0.32 0.375-0.222 0.674-0.529 0.896-0.922 0.222-0.401 0.333-0.862 0.333-1.382 0-0.529-0.111-0.99-0.333-1.382s-0.521-0.695-0.896-0.909c-0.375-0.222-0.802-0.333-1.28-0.333s-0.909 0.111-1.293 0.333c-0.375 0.213-0.674 0.516-0.896 0.909-0.213 0.393-0.32 0.853-0.32 1.382 0 0.521 0.107 0.981 0.32 1.382 0.222 0.393 0.521 0.7 0.896 0.922 0.384 0.213 0.815 0.32 1.293 0.32zM53.761 20.864c-0.648 0-1.233-0.145-1.754-0.435-0.512-0.299-0.917-0.704-1.216-1.216-0.299-0.521-0.448-1.114-0.448-1.779 0-0.674 0.149-1.267 0.448-1.779s0.704-0.913 1.216-1.203 1.097-0.435 1.754-0.435c0.666 0 1.254 0.145 1.766 0.435 0.521 0.29 0.926 0.691 1.216 1.203 0.299 0.512 0.448 1.105 0.448 1.779 0 0.666-0.149 1.259-0.448 1.779-0.29 0.512-0.695 0.917-1.216 1.216-0.52 0.29-1.109 0.435-1.766 0.435zM53.761 20.058c0.486 0 0.917-0.107 1.293-0.32 0.376-0.222 0.67-0.529 0.883-0.922 0.222-0.401 0.333-0.862 0.333-1.382 0-0.529-0.111-0.99-0.333-1.382-0.213-0.393-0.508-0.695-0.883-0.909-0.375-0.222-0.802-0.333-1.28-0.333s-0.904 0.111-1.28 0.333c-0.375 0.213-0.674 0.516-0.896 0.909s-0.333 0.853-0.333 1.382c0 0.521 0.111 0.981 0.333 1.382 0.222 0.393 0.521 0.7 0.896 0.922 0.376 0.213 0.798 0.32 1.267 0.32zM62.042 20.864c-0.649 0-1.233-0.145-1.754-0.435-0.512-0.299-0.917-0.704-1.216-1.216-0.299-0.521-0.448-1.114-0.448-1.779 0-0.674 0.149-1.267 0.448-1.779s0.704-0.913 1.216-1.203c0.512-0.29 1.097-0.435 1.754-0.435 0.666 0 1.254 0.145 1.766 0.435 0.521 0.29 0.926 0.691 1.216 1.203 0.299 0.512 0.448 1.105 0.448 1.779 0 0.666-0.149 1.259-0.448 1.779-0.29 0.512-0.695 0.917-1.216 1.216-0.521 0.29-1.109 0.435-1.766 0.435zM62.042 20.058c0.486 0 0.917-0.107 1.293-0.32 0.375-0.222 0.67-0.529 0.883-0.922 0.222-0.401 0.333-0.862 0.333-1.382 0-0.529-0.111-0.99-0.333-1.382-0.213-0.393-0.508-0.695-0.883-0.909-0.375-0.222-0.802-0.333-1.28-0.333s-0.905 0.111-1.28 0.333c-0.375 0.213-0.674 0.516-0.896 0.909s-0.333 0.853-0.333 1.382c0 0.521 0.111 0.981 0.333 1.382 0.222 0.393 0.521 0.7 0.896 0.922 0.375 0.213 0.798 0.32 1.267 0.32zM68.301 19.059l0.026-1.165 4.186-3.814h1.114l-2.957 2.829-0.512 0.435-1.856 1.715zM67.584 20.8v-9.498h0.909v9.498h-0.909zM72.794 20.8l-2.803-3.494 0.589-0.704 3.328 4.198h-1.114z"></path>
<path d="M94.956 13.55v1.102h-0.806v1.346h0.806v4.002h1.658v-4.002h1.112c0 0 0.105-0.646 0.155-1.352h-1.261v-0.92c0-0.138 0.181-0.323 0.36-0.323h0.902v-1.402h-1.228c-1.739 0-1.698 1.348-1.698 1.55z"></path>
<path d="M91.2 9.6c-0.424 0-0.831 0.169-1.131 0.469s-0.469 0.707-0.469 1.131v9.6c0 0.424 0.169 0.831 0.469 1.131s0.707 0.469 1.131 0.469h9.6c0.424 0 0.831-0.169 1.131-0.469s0.469-0.707 0.469-1.131v-9.6c0-0.424-0.169-0.831-0.469-1.131s-0.707-0.469-1.131-0.469h-9.6zM91.2 8h9.6c0.849 0 1.662 0.337 2.262 0.937s0.938 1.414 0.938 2.263v9.6c0 0.849-0.337 1.663-0.938 2.263s-1.414 0.937-2.262 0.937h-9.6c-0.849 0-1.662-0.337-2.262-0.937s-0.938-1.414-0.938-2.263v-9.6c0-0.849 0.337-1.663 0.938-2.263s1.414-0.937 2.262-0.937v0z"></path>
</symbol>
<symbol id="icon-telegram-pc" viewBox="0 0 115 32">
<path d="M12.8 20.8v-8.141h-3.149v-0.819h7.245v0.819h-3.149v8.141h-0.947zM20.628 20.864c-0.7 0-1.314-0.145-1.843-0.435-0.529-0.299-0.943-0.704-1.242-1.216-0.299-0.521-0.448-1.114-0.448-1.779s0.141-1.254 0.422-1.766c0.29-0.512 0.683-0.913 1.178-1.203 0.503-0.299 1.067-0.448 1.69-0.448 0.631 0 1.19 0.145 1.677 0.435 0.495 0.282 0.883 0.683 1.165 1.203 0.282 0.512 0.422 1.105 0.422 1.779 0 0.043-0.004 0.090-0.013 0.141 0 0.043 0 0.090 0 0.141h-5.85v-0.678h5.363l-0.358 0.269c0-0.486-0.107-0.917-0.32-1.293-0.205-0.384-0.486-0.683-0.845-0.896s-0.772-0.32-1.242-0.32c-0.461 0-0.875 0.107-1.242 0.32s-0.653 0.512-0.858 0.896c-0.205 0.384-0.307 0.823-0.307 1.318v0.141c0 0.512 0.111 0.964 0.333 1.357 0.23 0.384 0.546 0.687 0.947 0.909 0.41 0.213 0.875 0.32 1.395 0.32 0.41 0 0.789-0.073 1.139-0.218 0.358-0.145 0.666-0.367 0.922-0.666l0.512 0.589c-0.299 0.358-0.674 0.631-1.126 0.819-0.444 0.188-0.934 0.282-1.472 0.282zM25.754 20.8v-9.498h0.909v9.498h-0.909zM32.302 20.864c-0.7 0-1.314-0.145-1.843-0.435-0.529-0.299-0.943-0.704-1.242-1.216-0.299-0.521-0.448-1.114-0.448-1.779s0.141-1.254 0.422-1.766c0.29-0.512 0.683-0.913 1.178-1.203 0.504-0.299 1.067-0.448 1.69-0.448 0.632 0 1.19 0.145 1.677 0.435 0.495 0.282 0.883 0.683 1.165 1.203 0.282 0.512 0.422 1.105 0.422 1.779 0 0.043-0.004 0.090-0.013 0.141 0 0.043 0 0.090 0 0.141h-5.85v-0.678h5.363l-0.358 0.269c0-0.486-0.107-0.917-0.32-1.293-0.205-0.384-0.486-0.683-0.845-0.896s-0.772-0.32-1.242-0.32c-0.461 0-0.875 0.107-1.242 0.32s-0.653 0.512-0.858 0.896-0.307 0.823-0.307 1.318v0.141c0 0.512 0.111 0.964 0.333 1.357 0.23 0.384 0.546 0.687 0.947 0.909 0.41 0.213 0.875 0.32 1.395 0.32 0.41 0 0.789-0.073 1.139-0.218 0.358-0.145 0.666-0.367 0.922-0.666l0.512 0.589c-0.299 0.358-0.674 0.631-1.126 0.819-0.444 0.188-0.934 0.282-1.472 0.282zM40.296 23.347c-0.614 0-1.203-0.090-1.766-0.269s-1.020-0.435-1.37-0.768l0.461-0.691c0.316 0.282 0.704 0.503 1.165 0.666 0.469 0.171 0.964 0.256 1.485 0.256 0.853 0 1.48-0.201 1.882-0.602 0.401-0.393 0.602-1.007 0.602-1.843v-1.677l0.128-1.152-0.090-1.152v-2.035h0.87v5.901c0 1.161-0.286 2.010-0.858 2.547-0.563 0.546-1.4 0.819-2.509 0.819zM40.13 20.544c-0.64 0-1.216-0.137-1.728-0.41-0.512-0.282-0.917-0.67-1.216-1.165-0.29-0.495-0.435-1.062-0.435-1.702s0.145-1.203 0.435-1.69c0.299-0.495 0.704-0.879 1.216-1.152s1.088-0.41 1.728-0.41c0.597 0 1.135 0.124 1.613 0.371s0.858 0.614 1.139 1.101 0.422 1.079 0.422 1.779c0 0.7-0.141 1.293-0.422 1.779s-0.661 0.858-1.139 1.114c-0.478 0.256-1.016 0.384-1.613 0.384zM40.219 19.738c0.495 0 0.934-0.102 1.318-0.307 0.384-0.213 0.687-0.503 0.909-0.87 0.222-0.375 0.333-0.806 0.333-1.293s-0.111-0.913-0.333-1.28c-0.222-0.367-0.525-0.653-0.909-0.858-0.384-0.213-0.824-0.32-1.318-0.32-0.486 0-0.926 0.107-1.318 0.32-0.384 0.205-0.687 0.491-0.909 0.858-0.213 0.367-0.32 0.794-0.32 1.28s0.107 0.917 0.32 1.293c0.222 0.367 0.525 0.657 0.909 0.87 0.392 0.205 0.832 0.307 1.318 0.307zM46.447 20.8v-6.72h0.87v1.83l-0.090-0.32c0.188-0.512 0.503-0.9 0.947-1.165 0.444-0.273 0.994-0.41 1.651-0.41v0.883c-0.034 0-0.068 0-0.102 0-0.034-0.009-0.068-0.013-0.102-0.013-0.708 0-1.263 0.218-1.664 0.653-0.401 0.427-0.602 1.037-0.602 1.83v3.43h-0.909zM55.452 20.8v-1.485l-0.038-0.243v-2.483c0-0.572-0.162-1.011-0.486-1.318-0.316-0.307-0.789-0.461-1.421-0.461-0.435 0-0.849 0.073-1.242 0.218s-0.725 0.337-0.998 0.576l-0.41-0.678c0.341-0.29 0.751-0.512 1.229-0.666 0.478-0.162 0.981-0.243 1.51-0.243 0.87 0 1.54 0.218 2.010 0.653 0.478 0.427 0.717 1.079 0.717 1.958v4.173h-0.87zM53.135 20.864c-0.504 0-0.943-0.081-1.318-0.243-0.367-0.171-0.649-0.401-0.845-0.691-0.196-0.299-0.294-0.64-0.294-1.024 0-0.35 0.081-0.666 0.243-0.947 0.171-0.29 0.444-0.521 0.819-0.691 0.384-0.179 0.896-0.269 1.536-0.269h2.317v0.678h-2.291c-0.649 0-1.101 0.115-1.357 0.346-0.248 0.23-0.371 0.516-0.371 0.858 0 0.384 0.149 0.691 0.448 0.922s0.717 0.346 1.254 0.346c0.512 0 0.951-0.115 1.318-0.346 0.375-0.239 0.648-0.58 0.819-1.024l0.205 0.627c-0.171 0.444-0.469 0.798-0.896 1.062-0.418 0.265-0.947 0.397-1.587 0.397zM67.444 14.016c0.546 0 1.020 0.107 1.421 0.32 0.41 0.205 0.725 0.521 0.947 0.947 0.23 0.427 0.346 0.964 0.346 1.613v3.904h-0.909v-3.814c0-0.708-0.171-1.242-0.512-1.6-0.333-0.367-0.806-0.55-1.421-0.55-0.461 0-0.862 0.098-1.203 0.294-0.333 0.188-0.593 0.465-0.781 0.832-0.179 0.358-0.269 0.794-0.269 1.306v3.533h-0.909v-3.814c0-0.708-0.171-1.242-0.512-1.6-0.341-0.367-0.819-0.55-1.434-0.55-0.452 0-0.849 0.098-1.19 0.294-0.341 0.188-0.606 0.465-0.794 0.832-0.179 0.358-0.269 0.794-0.269 1.306v3.533h-0.909v-6.72h0.87v1.818l-0.141-0.32c0.205-0.486 0.533-0.866 0.986-1.139 0.461-0.282 1.003-0.422 1.626-0.422 0.657 0 1.216 0.166 1.677 0.499 0.461 0.324 0.759 0.815 0.896 1.472l-0.358-0.141c0.196-0.546 0.542-0.986 1.037-1.318 0.503-0.341 1.105-0.512 1.805-0.512z"></path>
<path d="M102.042 8.798c-0.192 0.014-0.382 0.059-0.559 0.134h-0.002c-0.171 0.068-0.984 0.41-2.22 0.928l-4.43 1.865c-3.178 1.338-6.302 2.656-6.302 2.656l0.038-0.014c0 0-0.216 0.071-0.441 0.225-0.139 0.088-0.258 0.204-0.351 0.34-0.11 0.162-0.199 0.41-0.166 0.666 0.054 0.433 0.334 0.693 0.536 0.836 0.204 0.145 0.398 0.213 0.398 0.213h0.005l2.93 0.987c0.131 0.422 0.893 2.925 1.075 3.502 0.108 0.344 0.214 0.56 0.345 0.724 0.063 0.084 0.138 0.154 0.227 0.211 0.046 0.027 0.096 0.048 0.148 0.064l-0.030-0.007c0.009 0.002 0.016 0.010 0.023 0.012 0.024 0.007 0.040 0.009 0.070 0.014 0.464 0.14 0.837-0.148 0.837-0.148l0.021-0.017 1.73-1.575 2.899 2.224 0.066 0.028c0.604 0.265 1.216 0.118 1.539-0.143 0.326-0.262 0.453-0.598 0.453-0.598l0.021-0.054 2.24-11.477c0.064-0.283 0.080-0.548 0.010-0.806-0.072-0.261-0.239-0.485-0.468-0.628-0.193-0.117-0.416-0.173-0.641-0.162zM101.982 10.028c-0.002 0.038 0.005 0.034-0.012 0.106v0.007l-2.22 11.358c-0.010 0.016-0.026 0.052-0.070 0.087-0.047 0.037-0.084 0.061-0.279-0.017l-3.546-2.719-2.142 1.952 0.45-2.874 5.794-5.4c0.239-0.222 0.159-0.269 0.159-0.269 0.017-0.272-0.361-0.080-0.361-0.080l-7.306 4.526-0.002-0.012-3.51-1.183c0.006-0.002 0.012-0.004 0.018-0.007l0.019-0.010 0.018-0.007c0 0 3.126-1.318 6.305-2.656 1.591-0.67 3.194-1.345 4.427-1.866 0.731-0.308 1.463-0.614 2.196-0.918 0.050-0.019 0.026-0.019 0.062-0.019v-0.001z"></path>
</symbol>
<symbol id="icon-instagram-pc" viewBox="0 0 115 32">
<path d="M92.372 7.253c0.938-0.043 1.238-0.053 3.628-0.053s2.69 0.010 3.627 0.053c0.938 0.042 1.578 0.192 2.138 0.409 0.586 0.222 1.118 0.568 1.558 1.016 0.448 0.439 0.794 0.97 1.014 1.558 0.218 0.56 0.366 1.2 0.41 2.136 0.043 0.94 0.053 1.239 0.053 3.629s-0.010 2.69-0.053 3.628c-0.042 0.936-0.192 1.576-0.41 2.136-0.221 0.587-0.567 1.119-1.014 1.559-0.44 0.448-0.972 0.794-1.558 1.014-0.56 0.218-1.2 0.366-2.136 0.41-0.939 0.043-1.238 0.053-3.629 0.053s-2.69-0.010-3.628-0.053c-0.936-0.042-1.576-0.192-2.136-0.41-0.587-0.221-1.119-0.567-1.559-1.014-0.448-0.439-0.794-0.971-1.015-1.558-0.217-0.56-0.366-1.2-0.409-2.136-0.043-0.94-0.053-1.239-0.053-3.629s0.010-2.69 0.053-3.627 0.192-1.578 0.409-2.138c0.222-0.587 0.568-1.119 1.016-1.558 0.439-0.448 0.97-0.794 1.558-1.015 0.56-0.217 1.2-0.366 2.136-0.409h0.001zM99.556 8.837c-0.928-0.042-1.206-0.051-3.556-0.051s-2.628 0.009-3.556 0.051c-0.858 0.039-1.324 0.182-1.634 0.303-0.41 0.16-0.704 0.35-1.012 0.658-0.292 0.284-0.517 0.63-0.658 1.012-0.121 0.31-0.264 0.776-0.303 1.634-0.042 0.928-0.051 1.206-0.051 3.556s0.009 2.628 0.051 3.556c0.039 0.858 0.182 1.324 0.303 1.634 0.141 0.382 0.366 0.728 0.658 1.012 0.284 0.292 0.63 0.517 1.012 0.658 0.31 0.121 0.776 0.264 1.634 0.303 0.928 0.042 1.206 0.051 3.556 0.051s2.628-0.009 3.556-0.051c0.858-0.039 1.324-0.182 1.634-0.303 0.41-0.16 0.704-0.35 1.012-0.658 0.292-0.284 0.517-0.63 0.658-1.012 0.121-0.31 0.264-0.776 0.303-1.634 0.042-0.928 0.051-1.206 0.051-3.556s-0.009-2.628-0.051-3.556c-0.039-0.858-0.182-1.324-0.303-1.634-0.16-0.41-0.35-0.704-0.658-1.012-0.284-0.292-0.63-0.517-1.012-0.658-0.31-0.121-0.776-0.264-1.634-0.303zM94.876 18.713c0.628 0.261 1.326 0.297 1.978 0.1s1.213-0.613 1.591-1.179c0.378-0.565 0.547-1.244 0.48-1.921s-0.367-1.309-0.849-1.789c-0.307-0.307-0.678-0.542-1.087-0.688s-0.845-0.2-1.277-0.157c-0.431 0.043-0.849 0.18-1.221 0.404s-0.69 0.526-0.932 0.887c-0.241 0.361-0.399 0.771-0.462 1.2s-0.032 0.867 0.094 1.283c0.126 0.415 0.342 0.798 0.634 1.119s0.65 0.575 1.051 0.741zM92.802 12.802c0.42-0.42 0.918-0.753 1.467-0.98s1.138-0.344 1.731-0.344 1.182 0.117 1.731 0.344c0.549 0.227 1.047 0.56 1.467 0.98s0.753 0.919 0.981 1.467c0.227 0.549 0.344 1.137 0.344 1.731s-0.117 1.182-0.344 1.731c-0.228 0.549-0.561 1.047-0.981 1.467-0.848 0.848-1.998 1.325-3.198 1.325s-2.35-0.477-3.198-1.325c-0.848-0.848-1.325-1.999-1.325-3.198s0.477-2.35 1.325-3.198zM101.526 12.15c0.104-0.098 0.187-0.216 0.245-0.347s0.089-0.272 0.090-0.415c0.002-0.143-0.024-0.285-0.078-0.418s-0.134-0.253-0.234-0.354c-0.102-0.101-0.222-0.181-0.354-0.235s-0.274-0.080-0.418-0.078-0.284 0.033-0.415 0.090c-0.131 0.058-0.249 0.141-0.347 0.245-0.191 0.202-0.295 0.471-0.291 0.75s0.116 0.544 0.313 0.741c0.197 0.197 0.462 0.309 0.741 0.313s0.547-0.1 0.75-0.291z"></path>
<path d="M11.059 20.8v-8.96h0.947v8.96h-0.947zM18.416 14.016c0.546 0 1.024 0.107 1.434 0.32 0.418 0.205 0.742 0.521 0.973 0.947 0.239 0.427 0.358 0.964 0.358 1.613v3.904h-0.909v-3.814c0-0.708-0.179-1.242-0.538-1.6-0.35-0.367-0.845-0.55-1.485-0.55-0.478 0-0.896 0.098-1.254 0.294-0.35 0.188-0.623 0.465-0.819 0.832-0.188 0.358-0.282 0.794-0.282 1.306v3.533h-0.909v-6.72h0.87v1.843l-0.141-0.346c0.213-0.486 0.555-0.866 1.024-1.139 0.469-0.282 1.028-0.422 1.677-0.422zM25.696 20.864c-0.555 0-1.079-0.077-1.574-0.23-0.495-0.162-0.883-0.363-1.165-0.602l0.41-0.717c0.273 0.205 0.623 0.384 1.050 0.538 0.427 0.145 0.875 0.218 1.344 0.218 0.64 0 1.101-0.098 1.382-0.294 0.282-0.205 0.422-0.474 0.422-0.806 0-0.247-0.081-0.439-0.243-0.576-0.154-0.145-0.358-0.252-0.614-0.32-0.256-0.077-0.542-0.141-0.858-0.192s-0.631-0.111-0.947-0.179c-0.307-0.068-0.589-0.166-0.845-0.294-0.256-0.137-0.465-0.32-0.627-0.55-0.154-0.23-0.23-0.538-0.23-0.922 0-0.367 0.102-0.695 0.307-0.986s0.504-0.516 0.896-0.678c0.401-0.171 0.888-0.256 1.459-0.256 0.435 0 0.87 0.060 1.306 0.179 0.435 0.111 0.794 0.26 1.075 0.448l-0.397 0.73c-0.299-0.205-0.619-0.35-0.96-0.435-0.341-0.094-0.683-0.141-1.024-0.141-0.606 0-1.054 0.107-1.344 0.32-0.282 0.205-0.422 0.469-0.422 0.794 0 0.256 0.077 0.457 0.23 0.602 0.162 0.145 0.371 0.26 0.627 0.346 0.265 0.077 0.55 0.141 0.858 0.192 0.316 0.051 0.627 0.115 0.934 0.192 0.316 0.068 0.602 0.166 0.858 0.294 0.265 0.119 0.474 0.294 0.627 0.525 0.162 0.222 0.243 0.516 0.243 0.883 0 0.393-0.111 0.734-0.333 1.024-0.213 0.282-0.529 0.503-0.947 0.666-0.41 0.154-0.909 0.23-1.498 0.23zM32.522 20.864c-0.631 0-1.118-0.171-1.459-0.512s-0.512-0.823-0.512-1.446v-6.31h0.909v6.259c0 0.393 0.098 0.695 0.294 0.909 0.205 0.213 0.495 0.32 0.87 0.32 0.401 0 0.734-0.115 0.998-0.346l0.32 0.653c-0.179 0.162-0.397 0.282-0.653 0.358-0.247 0.077-0.503 0.115-0.768 0.115zM29.348 14.835v-0.755h4.16v0.755h-4.16zM40.065 20.8v-1.485l-0.038-0.243v-2.483c0-0.572-0.162-1.011-0.486-1.318-0.316-0.307-0.789-0.461-1.421-0.461-0.435 0-0.849 0.073-1.242 0.218s-0.725 0.337-0.998 0.576l-0.41-0.678c0.341-0.29 0.751-0.512 1.229-0.666 0.478-0.162 0.981-0.243 1.51-0.243 0.87 0 1.54 0.218 2.010 0.653 0.478 0.427 0.717 1.079 0.717 1.958v4.173h-0.87zM37.748 20.864c-0.503 0-0.943-0.081-1.318-0.243-0.367-0.171-0.648-0.401-0.845-0.691-0.196-0.299-0.294-0.64-0.294-1.024 0-0.35 0.081-0.666 0.243-0.947 0.171-0.29 0.444-0.521 0.819-0.691 0.384-0.179 0.896-0.269 1.536-0.269h2.317v0.678h-2.291c-0.648 0-1.101 0.115-1.357 0.346-0.247 0.23-0.371 0.516-0.371 0.858 0 0.384 0.149 0.691 0.448 0.922s0.717 0.346 1.254 0.346c0.512 0 0.952-0.115 1.318-0.346 0.376-0.239 0.649-0.58 0.819-1.024l0.205 0.627c-0.171 0.444-0.469 0.798-0.896 1.062-0.418 0.265-0.947 0.397-1.587 0.397zM46.527 23.347c-0.614 0-1.203-0.090-1.766-0.269s-1.020-0.435-1.37-0.768l0.461-0.691c0.316 0.282 0.704 0.503 1.165 0.666 0.469 0.171 0.964 0.256 1.485 0.256 0.853 0 1.481-0.201 1.882-0.602 0.401-0.393 0.602-1.007 0.602-1.843v-1.677l0.128-1.152-0.090-1.152v-2.035h0.87v5.901c0 1.161-0.286 2.010-0.858 2.547-0.563 0.546-1.399 0.819-2.509 0.819zM46.36 20.544c-0.64 0-1.216-0.137-1.728-0.41-0.512-0.282-0.917-0.67-1.216-1.165-0.29-0.495-0.435-1.062-0.435-1.702s0.145-1.203 0.435-1.69c0.299-0.495 0.704-0.879 1.216-1.152s1.088-0.41 1.728-0.41c0.597 0 1.135 0.124 1.613 0.371s0.858 0.614 1.139 1.101 0.422 1.079 0.422 1.779c0 0.7-0.141 1.293-0.422 1.779s-0.661 0.858-1.139 1.114c-0.478 0.256-1.015 0.384-1.613 0.384zM46.45 19.738c0.495 0 0.934-0.102 1.318-0.307 0.384-0.213 0.687-0.503 0.909-0.87 0.222-0.375 0.333-0.806 0.333-1.293s-0.111-0.913-0.333-1.28c-0.222-0.367-0.525-0.653-0.909-0.858-0.384-0.213-0.823-0.32-1.318-0.32-0.486 0-0.926 0.107-1.318 0.32-0.384 0.205-0.687 0.491-0.909 0.858-0.213 0.367-0.32 0.794-0.32 1.28s0.107 0.917 0.32 1.293c0.222 0.367 0.525 0.657 0.909 0.87 0.393 0.205 0.832 0.307 1.318 0.307zM52.678 20.8v-6.72h0.87v1.83l-0.090-0.32c0.188-0.512 0.504-0.9 0.947-1.165 0.444-0.273 0.994-0.41 1.651-0.41v0.883c-0.034 0-0.068 0-0.102 0-0.034-0.009-0.068-0.013-0.102-0.013-0.708 0-1.263 0.218-1.664 0.653-0.401 0.427-0.602 1.037-0.602 1.83v3.43h-0.909zM61.683 20.8v-1.485l-0.038-0.243v-2.483c0-0.572-0.162-1.011-0.486-1.318-0.316-0.307-0.789-0.461-1.421-0.461-0.435 0-0.849 0.073-1.242 0.218s-0.725 0.337-0.998 0.576l-0.41-0.678c0.341-0.29 0.751-0.512 1.229-0.666 0.478-0.162 0.981-0.243 1.51-0.243 0.87 0 1.54 0.218 2.010 0.653 0.478 0.427 0.717 1.079 0.717 1.958v4.173h-0.87zM59.366 20.864c-0.503 0-0.943-0.081-1.318-0.243-0.367-0.171-0.648-0.401-0.845-0.691-0.196-0.299-0.294-0.64-0.294-1.024 0-0.35 0.081-0.666 0.243-0.947 0.171-0.29 0.444-0.521 0.819-0.691 0.384-0.179 0.896-0.269 1.536-0.269h2.317v0.678h-2.291c-0.648 0-1.101 0.115-1.357 0.346-0.247 0.23-0.371 0.516-0.371 0.858 0 0.384 0.149 0.691 0.448 0.922s0.717 0.346 1.254 0.346c0.512 0 0.952-0.115 1.318-0.346 0.376-0.239 0.649-0.58 0.819-1.024l0.205 0.627c-0.171 0.444-0.469 0.798-0.896 1.062-0.418 0.265-0.947 0.397-1.587 0.397zM73.674 14.016c0.546 0 1.020 0.107 1.421 0.32 0.41 0.205 0.725 0.521 0.947 0.947 0.23 0.427 0.346 0.964 0.346 1.613v3.904h-0.909v-3.814c0-0.708-0.171-1.242-0.512-1.6-0.333-0.367-0.806-0.55-1.421-0.55-0.461 0-0.862 0.098-1.203 0.294-0.333 0.188-0.593 0.465-0.781 0.832-0.179 0.358-0.269 0.794-0.269 1.306v3.533h-0.909v-3.814c0-0.708-0.171-1.242-0.512-1.6-0.341-0.367-0.819-0.55-1.434-0.55-0.452 0-0.849 0.098-1.19 0.294-0.341 0.188-0.606 0.465-0.794 0.832-0.179 0.358-0.269 0.794-0.269 1.306v3.533h-0.909v-6.72h0.87v1.818l-0.141-0.32c0.205-0.486 0.533-0.866 0.986-1.139 0.461-0.282 1.003-0.422 1.626-0.422 0.657 0 1.216 0.166 1.677 0.499 0.461 0.324 0.76 0.815 0.896 1.472l-0.358-0.141c0.196-0.546 0.542-0.986 1.037-1.318 0.504-0.341 1.105-0.512 1.805-0.512z"></path>
</symbol>
</defs>
</svg>
